<?xml version="1.0" encoding="utf-8"?>
<!-- Generator: Adobe Illustrator 24.1.1, SVG Export Plug-In . SVG Version: 6.00 Build 0)  -->
<svg version="1.1" id="Calque_1" xmlns="http://www.w3.org/2000/svg" xmlns:xlink="http://www.w3.org/1999/xlink" x="0px" y="0px"
	 viewBox="0 0 283 53" style="enable-background:new 0 0 283 53;" xml:space="preserve">
<style type="text/css">
	.st0{fill:#3F3E3F;}
	.st1{fill:#0EA593;}
</style>
<path class="st0" d="M15.7,22.5c-0.8,1.1-1.9,1.9-3.2,2.4c-1.3,0.6-2.7,0.8-4.2,0.8c-2.3,0.1-4.5-0.8-6.1-2.6
	c-1.6-2-2.4-4.6-2.3-7.2V9.9c0-3.2,0.7-5.7,2.1-7.4c1.5-1.8,3.7-2.7,6-2.6c2-0.1,3.9,0.6,5.4,1.9c1.4,1.5,2.2,3.5,2.2,5.5h-2
	C13.6,5.9,13,4.4,12,3.2c-1.1-1-2.5-1.4-4-1.3c-1.8-0.1-3.5,0.6-4.6,2c-1.1,1.8-1.7,3.9-1.5,6v5.9c-0.1,2.2,0.5,4.3,1.7,6.1
	c1.1,1.4,2.9,2.3,4.7,2.2c2,0.1,3.9-0.7,5.4-2.1v-6.6H8.2v-1.8h7.5V22.5z"/>
<path class="st0" d="M35.9,0.4v17.8c0.1,2.1-0.6,4.1-2,5.6c-1.5,1.4-3.5,2.1-5.5,2c-2,0.1-4-0.6-5.5-2c-1.4-1.6-2.1-3.6-1.9-5.7V0.4
	h2V18c0,4,1.8,5.9,5.5,5.9c3.7,0,5.5-1.9,5.5-5.8V0.4H35.9z"/>
<path class="st0" d="M43.8,25.4h-2V0.4h2V25.4z"/>
<path class="st0" d="M52,23.6h10.3v1.8H50.1V0.4h2L52,23.6z"/>
<path class="st0" d="M68.4,23.6h10.3v1.8H66.4V0.4h2L68.4,23.6z"/>
<path class="st0" d="M94.5,18.4h-9.4l-2.1,7h-2l8-25.1h1.8l8,25.1h-2L94.5,18.4z M85.7,16.6H94L89.8,3.1L85.7,16.6z"/>
<path class="st0" d="M116.7,0.4v17.8c0.1,2.1-0.6,4.1-2,5.6c-3.2,2.6-7.8,2.6-11,0c-1.4-1.6-2.1-3.6-1.9-5.7V0.4h2V18
	c0,4,1.8,5.9,5.5,5.9s5.5-1.9,5.5-5.8V0.4H116.7z"/>
<path class="st0" d="M124.8,0.4l7.6,22l7.6-22h2.6v25.1h-2V14.6l0.2-10.9l-7.6,21.8h-1.5L124,3.7l0.2,10.8v10.9h-2V0.4H124.8z"/>
<path class="st0" d="M160.3,13.4h-9.7v10.2h11.2v1.8h-13.2V0.4h13.1v1.9h-11.1v9.4h9.7L160.3,13.4z"/>
<path class="st1" d="M181.8,15H176v10.4h-2V0.4h6.9c2-0.1,3.9,0.6,5.3,2c1.3,1.5,2,3.4,1.9,5.4c0,1.5-0.4,3-1.2,4.3
	c-0.7,1.2-1.8,2.1-3.1,2.5l5.2,10.7v0.2h-2.1L181.8,15z M176,13.2h5.2c1.4,0.1,2.7-0.5,3.6-1.5c0.9-1.1,1.4-2.5,1.3-3.9
	c0.1-1.5-0.4-3-1.4-4.1c-1-1-2.4-1.5-3.9-1.5H176V13.2z"/>
<path class="st1" d="M209,15.6c0,3.2-0.7,5.7-2.1,7.5c-2.9,3.3-8,3.6-11.3,0.6c-0.2-0.2-0.4-0.4-0.6-0.6c-1.4-1.8-2.2-4.3-2.2-7.5
	v-5.5c0-3.2,0.7-5.7,2.1-7.5c2.9-3.3,8-3.6,11.3-0.7c0.2,0.2,0.4,0.4,0.7,0.7c1.4,1.8,2.1,4.3,2.1,7.6V15.6z M207,10.2
	c0-2.7-0.5-4.8-1.6-6.2c-2.2-2.5-6-2.8-8.5-0.6c-0.2,0.2-0.4,0.4-0.6,0.6c-1.1,1.3-1.6,3.3-1.6,6v5.6c0,2.8,0.5,4.8,1.6,6.2
	c1.1,1.4,2.8,2.2,4.5,2.1c1.8,0.1,3.5-0.7,4.6-2.1c1-1.4,1.6-3.5,1.6-6.3V10.2z"/>
<path class="st1" d="M214.2,25.4V0.4h6.4c1.9-0.1,3.7,0.5,5.1,1.7c1.2,1.3,1.9,3.1,1.8,4.9c0,1.2-0.3,2.3-0.9,3.3
	c-0.6,0.9-1.5,1.7-2.5,2.1c1.2,0.3,2.3,1.1,3,2.1c0.8,1.2,1.2,2.5,1.1,3.9c0.1,1.9-0.5,3.7-1.8,5.2c-1.3,1.3-3.2,2-5.1,1.9
	L214.2,25.4z M216.2,11.6h4.6c1.3,0.1,2.5-0.3,3.5-1.2c0.9-1,1.3-2.2,1.2-3.5c0.1-1.3-0.3-2.6-1.2-3.5c-1-0.8-2.3-1.2-3.7-1.1h-4.4
	L216.2,11.6z M216.2,13.4v10.2h5.2c1.3,0.1,2.6-0.4,3.5-1.4c0.9-1.1,1.4-2.4,1.3-3.8c0.1-1.3-0.4-2.7-1.3-3.7
	c-0.9-0.9-2.1-1.4-3.3-1.4L216.2,13.4z"/>
<path class="st1" d="M244.8,13.4h-9.7v10.2h11.2v1.8h-13.2V0.4h13.1v1.9h-11.1v9.4h9.7L244.8,13.4z"/>
<path class="st1" d="M258.4,15h-5.9v10.4h-2V0.4h6.9c2-0.1,3.9,0.6,5.3,2c1.3,1.5,2,3.4,1.9,5.4c0,1.5-0.4,3-1.2,4.3
	c-0.7,1.2-1.8,2.1-3.1,2.5l5.2,10.7v0.2h-2.1L258.4,15z M252.6,13.2h5.2c1.4,0.1,2.7-0.5,3.5-1.5c0.9-1.1,1.4-2.5,1.3-3.9
	c0.1-1.5-0.4-3-1.4-4.1c-1-1-2.4-1.5-3.9-1.5h-4.9V13.2z"/>
<path class="st1" d="M283,2.2h-7.1v23.2h-2V2.2h-7.1V0.4H283V2.2z"/>
<g>
	<path class="st1" d="M0.9,45.3V34.8h2.5c1.2,0,2.2,0.4,2.8,1.1s1,1.8,1,3.2v1.7c0,1.4-0.3,2.4-1,3.2c-0.7,0.8-1.7,1.1-3,1.1H0.9z
		 M2.2,36v8.2h1.1c0.9,0,1.6-0.3,2-0.8C5.7,42.8,5.9,42,6,41v-1.9c0-1.1-0.2-1.9-0.6-2.4C4.9,36.2,4.3,36,3.4,36H2.2z"/>
	<path class="st1" d="M11.9,45.4c-1,0-1.7-0.3-2.2-0.9C9.1,44,8.9,43.1,8.9,42v-0.9c0-1.2,0.3-2.1,0.8-2.7s1.2-1,2.1-1
		c0.9,0,1.6,0.3,2,0.9c0.4,0.6,0.7,1.5,0.7,2.7v0.8h-4.3v0.2c0,0.8,0.2,1.4,0.5,1.8s0.8,0.6,1.3,0.6c0.4,0,0.7-0.1,1-0.2
		s0.6-0.4,0.8-0.7l0.7,0.8C13.8,45,13,45.4,11.9,45.4z M11.7,38.5c-0.5,0-0.9,0.2-1.2,0.5c-0.3,0.4-0.4,0.9-0.4,1.7h3.1v-0.2
		c0-0.7-0.2-1.3-0.4-1.6C12.6,38.6,12.2,38.5,11.7,38.5z M12.4,34.3H14L12,36.4l-1.1,0L12.4,34.3z"/>
	<path class="st1" d="M18.1,43.3l1.5-5.8h1.3l-2.3,7.7h-0.9l-2.3-7.7h1.3L18.1,43.3z"/>
	<path class="st1" d="M24.8,45.4c-1,0-1.7-0.3-2.2-0.9c-0.5-0.6-0.8-1.4-0.8-2.5v-0.9c0-1.2,0.3-2.1,0.8-2.7s1.2-1,2.1-1
		c0.9,0,1.6,0.3,2,0.9s0.7,1.5,0.7,2.7v0.8h-4.3v0.2c0,0.8,0.2,1.4,0.5,1.8c0.3,0.4,0.8,0.6,1.3,0.6c0.4,0,0.7-0.1,1-0.2
		s0.6-0.4,0.8-0.7l0.7,0.8C26.8,45,26,45.4,24.8,45.4z M24.7,38.5c-0.5,0-0.9,0.2-1.2,0.5s-0.4,0.9-0.4,1.7h3.1v-0.2
		c0-0.7-0.2-1.3-0.4-1.6C25.5,38.6,25.2,38.5,24.7,38.5z"/>
	<path class="st1" d="M30.3,45.3H29v-11h1.3V45.3z"/>
	<path class="st1" d="M32,41c0-1.1,0.3-2,0.8-2.7s1.3-1,2.2-1s1.6,0.3,2.2,1c0.5,0.6,0.8,1.5,0.8,2.6v0.8c0,1.1-0.3,2-0.8,2.7
		c-0.5,0.7-1.3,1-2.2,1c-0.9,0-1.6-0.3-2.2-1C32.3,43.8,32,43,32,41.9V41z M33.3,41.8c0,0.8,0.2,1.4,0.5,1.9
		c0.3,0.5,0.7,0.7,1.3,0.7c1.1,0,1.7-0.8,1.7-2.4V41c0-0.8-0.2-1.4-0.5-1.9c-0.3-0.5-0.7-0.7-1.3-0.7c-0.5,0-0.9,0.2-1.2,0.7
		c-0.3,0.5-0.5,1.1-0.5,1.9V41.8z"/>
	<path class="st1" d="M45.3,41.8c0,1.2-0.2,2.1-0.7,2.7s-1.1,0.9-1.9,0.9c-0.8,0-1.4-0.3-1.8-0.9v3.7h-1.3V37.5h1.1l0.1,0.9
		c0.4-0.7,1-1,1.8-1c0.8,0,1.5,0.3,1.9,0.9s0.6,1.5,0.7,2.7V41.8z M44,41c0-0.9-0.1-1.5-0.4-1.9c-0.3-0.4-0.7-0.6-1.3-0.6
		c-0.6,0-1.1,0.3-1.4,0.9v4c0.3,0.6,0.8,0.9,1.4,0.9c0.6,0,1-0.2,1.3-0.6c0.3-0.4,0.4-1,0.4-1.9V41z"/>
	<path class="st1" d="M52.5,41.8c0,1.2-0.2,2.1-0.7,2.7c-0.4,0.6-1.1,0.9-1.9,0.9c-0.8,0-1.4-0.3-1.8-0.9v3.7h-1.3V37.5H48l0.1,0.9
		c0.4-0.7,1-1,1.8-1c0.8,0,1.5,0.3,1.9,0.9c0.4,0.6,0.6,1.5,0.7,2.7V41.8z M51.2,41c0-0.9-0.1-1.5-0.4-1.9c-0.3-0.4-0.7-0.6-1.3-0.6
		c-0.6,0-1.1,0.3-1.4,0.9v4c0.3,0.6,0.8,0.9,1.4,0.9c0.6,0,1-0.2,1.3-0.6c0.3-0.4,0.4-1,0.4-1.9V41z"/>
	<path class="st1" d="M56.9,45.4c-1,0-1.7-0.3-2.2-0.9c-0.5-0.6-0.8-1.4-0.8-2.5v-0.9c0-1.2,0.3-2.1,0.8-2.7s1.2-1,2.1-1
		c0.9,0,1.6,0.3,2,0.9s0.7,1.5,0.7,2.7v0.8h-4.3v0.2c0,0.8,0.2,1.4,0.5,1.8s0.8,0.6,1.3,0.6c0.4,0,0.7-0.1,1-0.2
		c0.3-0.1,0.6-0.4,0.8-0.7l0.7,0.8C58.9,45,58,45.4,56.9,45.4z M56.8,38.5c-0.5,0-0.9,0.2-1.2,0.5s-0.4,0.9-0.4,1.7h3.1v-0.2
		c0-0.7-0.2-1.3-0.4-1.6C57.6,38.6,57.2,38.5,56.8,38.5z"/>
	<path class="st1" d="M64.9,44.6c-0.4,0.5-1,0.8-1.8,0.8c-0.7,0-1.2-0.2-1.6-0.7c-0.4-0.5-0.5-1.2-0.5-2.1v-5h1.3v5
		c0,1.2,0.4,1.8,1.1,1.8c0.8,0,1.3-0.3,1.6-1v-5.7h1.3v7.7H65L64.9,44.6z"/>
	<path class="st1" d="M71.3,38.7c-0.2,0-0.4-0.1-0.6-0.1c-0.6,0-1.1,0.4-1.4,1.1v5.5h-1.3v-7.7h1.2l0,0.8c0.3-0.6,0.8-0.9,1.4-0.9
		c0.2,0,0.4,0,0.5,0.1L71.3,38.7z"/>
	<path class="st1" d="M81.7,43l1.2-5.5h1.3l-1.9,7.7h-1l-1.5-5.5l-1.5,5.5h-1l-1.9-7.7h1.2l1.2,5.4l1.4-5.4h1L81.7,43z"/>
	<path class="st1" d="M88.2,45.4c-1,0-1.7-0.3-2.2-0.9c-0.5-0.6-0.8-1.4-0.8-2.5v-0.9c0-1.2,0.3-2.1,0.8-2.7c0.5-0.7,1.2-1,2.1-1
		c0.9,0,1.6,0.3,2,0.9s0.7,1.5,0.7,2.7v0.8h-4.3v0.2c0,0.8,0.2,1.4,0.5,1.8s0.8,0.6,1.3,0.6c0.4,0,0.7-0.1,1-0.2s0.6-0.4,0.8-0.7
		l0.7,0.8C90.2,45,89.3,45.4,88.2,45.4z M88.1,38.5c-0.5,0-0.9,0.2-1.2,0.5s-0.4,0.9-0.4,1.7h3.1v-0.2c0-0.7-0.2-1.3-0.4-1.6
		C88.9,38.6,88.5,38.5,88.1,38.5z"/>
	<path class="st1" d="M97.9,41.8c0,1.2-0.2,2.1-0.7,2.7s-1.1,0.9-1.9,0.9c-0.8,0-1.4-0.4-1.8-1.1l-0.1,0.9h-1.2v-11h1.3v4.1
		c0.4-0.7,1-1,1.8-1c0.8,0,1.5,0.3,1.9,0.9c0.4,0.6,0.6,1.5,0.6,2.7V41.8z M96.7,41c0-0.9-0.1-1.6-0.4-2c-0.3-0.4-0.7-0.6-1.2-0.6
		c-0.7,0-1.1,0.4-1.5,1.1v3.7c0.3,0.7,0.8,1,1.5,1c0.6,0,1-0.2,1.2-0.6c0.2-0.4,0.4-1,0.4-1.9V41z"/>
	<path class="st1" d="M103.5,45.3v-6.7h-1v-1h1v-0.9c0-0.8,0.2-1.4,0.6-1.8c0.4-0.4,0.9-0.7,1.6-0.7c0.3,0,0.5,0,0.8,0.1l-0.1,1.1
		c-0.2,0-0.4-0.1-0.6-0.1c-0.7,0-1.1,0.5-1.1,1.5v0.7h1.3v1h-1.3v6.7H103.5z"/>
	<path class="st1" d="M110.7,38.7c-0.2,0-0.4-0.1-0.6-0.1c-0.6,0-1.1,0.4-1.4,1.1v5.5h-1.3v-7.7h1.2l0,0.8c0.3-0.6,0.8-0.9,1.4-0.9
		c0.2,0,0.4,0,0.5,0.1L110.7,38.7z"/>
	<path class="st1" d="M111.6,41c0-1.1,0.3-2,0.8-2.7c0.5-0.7,1.3-1,2.2-1s1.6,0.3,2.2,1c0.5,0.6,0.8,1.5,0.8,2.6v0.8
		c0,1.1-0.3,2-0.8,2.7c-0.5,0.7-1.3,1-2.2,1c-0.9,0-1.6-0.3-2.2-1c-0.5-0.6-0.8-1.5-0.8-2.6V41z M112.9,41.8c0,0.8,0.2,1.4,0.5,1.9
		c0.3,0.5,0.7,0.7,1.3,0.7c1.1,0,1.7-0.8,1.7-2.4V41c0-0.8-0.2-1.4-0.5-1.9s-0.7-0.7-1.3-0.7c-0.5,0-0.9,0.2-1.2,0.7
		c-0.3,0.5-0.5,1.1-0.5,1.9V41.8z"/>
	<path class="st1" d="M120.4,37.5l0,0.8c0.5-0.7,1.1-1,1.9-1c1.4,0,2.1,0.9,2.1,2.7v5.1h-1.3v-5.1c0-0.6-0.1-1-0.3-1.3
		c-0.2-0.3-0.5-0.4-0.9-0.4c-0.3,0-0.6,0.1-0.8,0.3c-0.3,0.2-0.5,0.5-0.6,0.8v5.6h-1.3v-7.7H120.4z"/>
	<path class="st1" d="M128,35.6v1.9h1.2v1H128v4.8c0,0.3,0.1,0.5,0.2,0.7c0.1,0.2,0.3,0.2,0.5,0.2c0.2,0,0.3,0,0.5-0.1l0,1.1
		c-0.3,0.1-0.6,0.1-0.9,0.1c-0.5,0-0.9-0.2-1.1-0.5c-0.3-0.4-0.4-0.9-0.4-1.5v-4.8h-1.2v-1h1.2v-1.9H128z"/>
	<path class="st1" d="M136.8,45.4c-1,0-1.7-0.3-2.2-0.9c-0.5-0.6-0.8-1.4-0.8-2.5v-0.9c0-1.2,0.3-2.1,0.8-2.7s1.2-1,2.1-1
		c0.9,0,1.6,0.3,2,0.9c0.4,0.6,0.7,1.5,0.7,2.7v0.8H135v0.2c0,0.8,0.2,1.4,0.5,1.8c0.3,0.4,0.8,0.6,1.3,0.6c0.4,0,0.7-0.1,1-0.2
		s0.6-0.4,0.8-0.7l0.7,0.8C138.7,45,137.9,45.4,136.8,45.4z M136.6,38.5c-0.5,0-0.9,0.2-1.2,0.5c-0.3,0.4-0.4,0.9-0.4,1.7h3.1v-0.2
		c0-0.7-0.2-1.3-0.4-1.6C137.5,38.6,137.1,38.5,136.6,38.5z"/>
	<path class="st1" d="M142.1,37.5l0,0.8c0.5-0.7,1.1-1,1.9-1c1.4,0,2.1,0.9,2.1,2.7v5.1h-1.3v-5.1c0-0.6-0.1-1-0.3-1.3
		c-0.2-0.3-0.5-0.4-0.9-0.4c-0.3,0-0.6,0.1-0.8,0.3c-0.3,0.2-0.5,0.5-0.6,0.8v5.6h-1.3v-7.7H142.1z"/>
	<path class="st1" d="M147.7,41c0-1.2,0.2-2.1,0.7-2.7c0.4-0.6,1.1-0.9,1.9-0.9c0.7,0,1.3,0.3,1.7,0.9v-4h1.3v11h-1.2l-0.1-0.8
		c-0.4,0.6-1,1-1.8,1c-0.8,0-1.4-0.3-1.9-0.9s-0.7-1.5-0.7-2.6V41z M149,41.8c0,0.9,0.1,1.5,0.4,1.9c0.3,0.4,0.7,0.6,1.3,0.6
		c0.6,0,1.1-0.3,1.4-1v-3.9c-0.3-0.6-0.8-0.9-1.4-0.9c-0.6,0-1,0.2-1.3,0.6c-0.3,0.4-0.4,1-0.4,1.9V41.8z"/>
</g>
</svg>
